<?xml version="1.0" encoding="UTF-8"?><svg id="Layer_2" xmlns="http://www.w3.org/2000/svg" viewBox="0 0 2007.76 435.32"><defs><style>.cls-1{fill:#f0efef;font-family:Arial-BoldMT, Arial;font-size:335.12px;font-weight:700;}.cls-2{fill:#fdbe1d;}.cls-3{fill:#dd3646;}.cls-4{fill:#128854;}.cls-5{fill:#406cb4;}.cls-6{fill:#3a76bb;}</style></defs><g id="Layer_1-2"><rect class="cls-2" y="191.32" width="382.64" height="95.66" rx=".01" ry=".01"/><rect class="cls-4" y="95.66" width="237.22" height="95.66" rx=".01" ry=".01"/><rect class="cls-5" x="237.22" y="95.66" width="145.42" height="95.66" rx=".01" ry=".01"/><path class="cls-3" d="m95.98,382.63s0,.01-.01.01h-55.97c-22.09,0-40-17.91-40-40v-55.65s0-.01.01-.01h95.96s.01,0,.01.01v95.64Z"/><path class="cls-6" d="m342.64,382.64H95.99s-.01,0-.01-.01v-95.64s0-.01.01-.01h286.64s.01,0,.01.01v55.65c0,22.09-17.91,40-40,40Z"/><path class="cls-3" d="m156.97,95.65s0,.01-.01.01H.01s-.01,0-.01-.01v-55.65C0,17.91,17.91,0,40,0h116.96s.01,0,.01.01v95.64Z"/><path class="cls-2" d="m382.64,95.65s0,.01-.01.01h-225.65s-.01,0-.01-.01V.01s0-.01.01-.01h185.66c22.09,0,40,17.91,40,40v55.65Z"/><text class="cls-1" transform="translate(443.41 309.16)"><tspan x="0" y="0">AI Library</tspan></text></g></svg>